<mxfile host="app.diagrams.net" modified="2021-12-16T10:36:12.457Z" agent="5.0 (X11)" etag="3MlCXiZy_xOR1tRQUVbm" version="15.9.6" type="github">
  <diagram id="kgpKYQtTHZ0yAKxKKP6v" name="Page-1">
    <mxGraphModel dx="2062" dy="1052" grid="1" gridSize="10" guides="1" tooltips="1" connect="1" arrows="1" fold="1" page="1" pageScale="1" pageWidth="850" pageHeight="1100" math="0" shadow="0">
      <root>
        <mxCell id="0" />
        <mxCell id="1" parent="0" />
        <mxCell id="OUa8m8FJZUi-0pZyHIJx-1" value="Actor" style="shape=umlActor;verticalLabelPosition=bottom;verticalAlign=top;html=1;" vertex="1" parent="1">
          <mxGeometry x="110" y="260" width="30" height="60" as="geometry" />
        </mxCell>
        <mxCell id="OUa8m8FJZUi-0pZyHIJx-2" value="press Button" style="html=1;" vertex="1" parent="1">
          <mxGeometry x="170" y="265" width="110" height="50" as="geometry" />
        </mxCell>
        <mxCell id="OUa8m8FJZUi-0pZyHIJx-5" value="&lt;div&gt;LED blinks&amp;nbsp; RED&lt;/div&gt;" style="html=1;direction=south;" vertex="1" parent="1">
          <mxGeometry x="400" y="235" width="190" height="110" as="geometry" />
        </mxCell>
        <mxCell id="OUa8m8FJZUi-0pZyHIJx-6" value="LED is full blue GREEN" style="html=1;" vertex="1" parent="1">
          <mxGeometry x="710" y="250" width="190" height="80" as="geometry" />
        </mxCell>
        <mxCell id="OUa8m8FJZUi-0pZyHIJx-8" style="edgeStyle=orthogonalEdgeStyle;rounded=0;orthogonalLoop=1;jettySize=auto;html=1;exitX=0.5;exitY=1;exitDx=0;exitDy=0;" edge="1" parent="1">
          <mxGeometry relative="1" as="geometry">
            <mxPoint x="530" y="680" as="sourcePoint" />
            <mxPoint x="530" y="680" as="targetPoint" />
          </mxGeometry>
        </mxCell>
        <mxCell id="OUa8m8FJZUi-0pZyHIJx-9" value="flank Interrupt" style="verticalLabelPosition=bottom;verticalAlign=top;html=1;strokeWidth=2;shape=mxgraph.arrows2.arrow;dy=0.6;dx=40;notch=0;" vertex="1" parent="1">
          <mxGeometry x="280" y="255" width="120" height="70" as="geometry" />
        </mxCell>
        <mxCell id="OUa8m8FJZUi-0pZyHIJx-10" value="Timer interrupt" style="verticalLabelPosition=bottom;verticalAlign=top;html=1;strokeWidth=2;shape=mxgraph.arrows2.arrow;dy=0.6;dx=40;notch=0;" vertex="1" parent="1">
          <mxGeometry x="590" y="255" width="120" height="70" as="geometry" />
        </mxCell>
      </root>
    </mxGraphModel>
  </diagram>
</mxfile>
